<?xml version="1.0" encoding="iso-8859-1"?>
<!-- Uploaded to: SVG Repo, www.svgrepo.com, Generator: SVG Repo Mixer Tools -->
<svg fill="#000000" height="800px" width="800px" version="1.1" id="Layer_1" xmlns="http://www.w3.org/2000/svg" xmlns:xlink="http://www.w3.org/1999/xlink" 
	 viewBox="0 0 496 496" xml:space="preserve">
<g>
	<g>
		<path d="M395.103,192.884V93.832c0-2.36-0.952-4.584-2.792-6.06c-1.84-1.464-4.184-2.016-6.492-1.5l-81.248,18.46
			c-3.524,0.816-6.248,3.944-6.248,7.564v81.944c0-0.256-2.292-0.396-3.616-0.396c-10.796,0-19.456,8.784-19.456,19.584
			c0,10.788,8.856,19.572,19.652,19.572s19.352-8.78,19.352-19.572c0-0.752-0.44-1.448-0.44-2.176v-73.944l65.808-14.94v53.5
			c0-0.256-2.424-0.392-3.752-0.392c-10.8,0-19.528,8.784-19.528,19.584s8.816,19.568,19.62,19.568
			c10.796,0,19.468-8.768,19.468-19.568C395.427,194.316,395.103,193.604,395.103,192.884z"/>
	</g>
</g>
<g>
	<g>
		<path d="M486.851,105.292c-7.492-21.716-19.888-42.112-37.192-59.424C420.075,16.284,380.743,0,338.907,0
			s-81.168,16.284-110.752,45.868c-26.964,26.976-42.008,61.416-45.148,96.72c-3.272,35.096,5.228,71.084,25.472,101.528
			l-2.584,2.572c-5.184,5.188-7.892,11.904-8.184,18.708c-0.28,3.904,0.26,7.864,1.592,11.596L170.195,306.1l-3.368-3.372
			c-1.48-1.48-3.864-1.512-5.396-0.076L8.899,446.128c-4.228,4.22-6.848,9.448-7.872,14.924c-2.068,9.268,0.472,19.356,7.66,26.54
			C14.099,493.008,21.295,496,28.951,496s14.852-2.992,20.352-8.484L192.827,334.92c0.78-0.832,1.084-1.92,1-2.964
			c0.156-1.164-0.144-2.376-1.032-3.264l-2.984-2.98l28.912-28.908c3.248,1.248,6.68,1.884,10.112,1.884
			c7.248,0,14.492-2.752,20-8.268l2.868-2.86c25.6,17.224,55.728,26.496,87.284,26.496c41.868,0,81.236-16.304,110.844-45.916
			C493.791,224.184,506.131,160.4,486.851,105.292z M339.147,275.444c-7.372,0-14.58-0.712-21.58-1.996
			c-0.676-0.136-1.356-0.24-2.036-0.364c-0.508-0.104-1.008-0.244-1.52-0.344c-22.012-4.72-42.244-15.64-58.548-31.924
			c-11.644-11.644-20.332-25.144-26.088-39.56l0.096-0.06c-1.984-4.944-3.656-10.06-4.952-15.304l-0.076,0.044
			c-9.652-38.908,0.676-81.92,31.02-112.268c22.312-22.304,51.976-34.716,83.528-34.716c0.024,0,0.056,0,0.056,0
			c0.044,0,0.076,0,0.076,0c1.308,0,2.58,0.176,3.856,0.22c0.652,0.016,1.3,0.076,1.944,0.1c1.868,0.092,3.728,0.268,5.572,0.444
			c0.076,0.008,0.16,0.024,0.244,0.04c1.916,0.18,3.804,0.424,5.688,0.704c0.028,0,0.06,0.016,0.088,0.016
			c1.876,0.276,3.744,0.608,5.592,0.972c0.04,0,0.08,0.016,0.12,0.024c1.848,0.372,3.676,0.776,5.496,1.232
			c0.048,0,0.092,0.016,0.136,0.032c1.848,0.452,3.668,0.968,5.468,1.512c0.028,0,0.052,0.016,0.076,0.016
			c48.528,14.684,83.86,59.748,83.86,113.068C457.263,222.568,404.383,275.444,339.147,275.444z"/>
	</g>
</g>
</svg>